<?xml version="1.0" encoding="utf-8"?>
<!-- Generator: Adobe Illustrator 23.0.2, SVG Export Plug-In . SVG Version: 6.00 Build 0)  -->
<svg version="1.1" id="Layer_1" xmlns="http://www.w3.org/2000/svg" xmlns:xlink="http://www.w3.org/1999/xlink" x="0px" y="0px"
	 viewBox="0 0 1271.1851 361.9185" enable-background="new 0 0 1271.1851 361.9185" xml:space="preserve">
<g>
	<path d="M800.5245,259.3369h128.8276v1.0131h4.103h1.897v-3c0-13.2334,10.7661-24,24-24s24,10.7666,24,24v3h1.8971h4.1029v-1.0131
		h10.2457c2.5747,0,4.6813-2.1066,4.6813-4.6813c0-2.3787-1.8044-4.3356-4.1086-4.623l0.6289-11.652
		c0.1318-2.4454-0.5022-4.8712-1.8142-6.9393l-6.9617-10.9744c-1.457-2.2966-3.6643-4.0179-6.2468-4.8711l-33.2488-10.9845
		l-64.7833-25.5541c-14.9793-5.9087-30.9161-8.4329-46.8295-7.417l-71.6859,4.5762c-1.8917,0.1206-3.6939,0.8488-5.1386,2.0758
		l-25.0861,21.3063c-2.1533,1.829-3.2982,4.5802-3.0781,7.3969l0.7983,10.212c0.208,2.6611-0.8024,5.2728-2.7471,7.1011
		l-1.9245,1.8092c-1.8896,1.7765-2.8999,4.2955-2.7613,6.8854l0.9097,16.9939c-2.4707,0.1191-4.4597,2.1599-4.4597,4.6587
		c0,2.5747,2.1066,4.6813,4.6813,4.6813h10.1013v1.0131h4.103h1.897v-3c0-13.2334,10.7661-24,24-24s24,10.7666,24,24v3h1.897h4.103
		V259.3369z M852.9501,210.8509l0.261-3.2913l13.933,1.1055l-0.2611,3.291L852.9501,210.8509z M785.4128,201.0093l0.4595-3.2693
		l13.8407,1.9453l-0.4595,3.2694L785.4128,201.0093z M840.4476,200.7586l-4.053-0.2849l-51.1518-7.8831l-1.5309-12.2886
		l55.8833-3.5675L840.4476,200.7586z M847.7853,176.421c13.0391,0,25.8657,2.4519,38.125,7.2874l37.3881,14.7479l6.5067,8.5858
		l-80.5065-5.6609l-3.8226-24.9232C846.247,176.4405,847.0189,176.421,847.7853,176.421z M767.3273,182.1033
		c0.6201-0.5269,1.4087-0.8455,2.2197-0.897l10.0473-0.6414l0.323,11.2051l-17.2913-2.6648l-1.8044-1.4766L767.3273,182.1033z"/>
	<path d="M770.5266,270.9288c-7.4885,0-13.5806-6.0914-13.5806-13.5784c0-0.3967,0.0201-0.8097,0.0623-1.2635
		c0.6448-7.0221,6.4561-12.3153,13.5182-12.3153c7.0601,0,12.8705,5.2936,13.5161,12.3135
		c0.0402,0.4429,0.0602,0.8586,0.0602,1.2654c0,4.6676-2.3679,8.7916-5.9645,11.2366c3.507-0.8813,7.1545-1.4012,10.903-1.5283
		c1.5251-2.9028,2.3984-6.2019,2.3984-9.7084c0-0.6539-0.0333-1.2997-0.0915-1.937c-0.9784-10.6427-9.9242-18.9781-20.8217-18.9781
		c-10.8995,0-19.8464,8.3354-20.8237,18.9781c-0.0593,0.6373-0.0936,1.2831-0.0936,1.937c0,8.2726,4.8156,15.4025,11.7864,18.7952
		c3.0237-2.0795,6.2841-3.8354,9.7221-5.2467C770.9203,270.9073,770.7262,270.9288,770.5266,270.9288z"/>
	<path d="M770.5266,263.5921c3.4404,0,6.2397-2.7998,6.2397-6.2417c0-0.1814-0.01-0.3787-0.0294-0.5938
		c-0.2959-3.2201-2.9662-5.6484-6.2103-5.6484c-3.2456,0-5.9166,2.4287-6.2132,5.6589c-0.0208,0.222-0.0308,0.4126-0.0308,0.5833
		C764.2827,260.7923,767.084,263.5921,770.5266,263.5921z"/>
	<path d="M965.5941,257.3504c0-0.1814-0.0101-0.3787-0.0294-0.5938c-0.2959-3.2201-2.9662-5.6484-6.2103-5.6484
		c-3.2456,0-5.9165,2.4287-6.2131,5.6589c-0.0208,0.222-0.0308,0.4126-0.0308,0.5833c0,3.4419,2.8013,6.2417,6.2439,6.2417
		C962.7947,263.5921,965.5941,260.7923,965.5941,257.3504z"/>
	<path d="M416.8404,257.3499c0-13.2334,10.7661-24,24-24s24,10.7666,24,24v3h1.8969h4.1031v-1.0131H599.668v1.0131h4.1029h1.8971v-3
		c0-13.2334,10.7661-24,24-24s24,10.7666,24,24v3h1.897h4.103v-1.0131h10.2456c2.5747,0,4.6813-2.1066,4.6813-4.6813
		c0-2.3787-1.8045-4.3356-4.1086-4.623l0.6288-11.652c0.132-2.4454-0.5022-4.8712-1.8141-6.9393l-6.9618-10.9744
		c-1.457-2.2966-3.6643-4.0179-6.2468-4.8711l-33.2487-10.9845l-64.7833-25.5541c-14.9793-5.9087-30.9161-8.4329-46.8295-7.417
		l-71.6859,4.5762c-1.8917,0.1206-3.6939,0.8488-5.1387,2.0758l-25.086,21.3063c-2.1533,1.829-3.2982,4.5802-3.0781,7.3969
		l0.7983,10.212c0.208,2.6611-0.8024,5.2728-2.7471,7.1011l-1.9245,1.8092c-1.8896,1.7765-2.8999,4.2955-2.7613,6.8854
		l0.9097,16.9939c-2.4707,0.1191-4.4597,2.1599-4.4597,4.6587c0,2.5747,2.1066,4.6813,4.6813,4.6813h10.1014v1.0131h4.1028h1.8972
		V257.3499z M523.2659,210.8509l0.261-3.2913l13.933,1.1055l-0.2611,3.291L523.2659,210.8509z M455.7286,201.0093l0.4595-3.2693
		l13.8407,1.9453l-0.4595,3.2694L455.7286,201.0093z M510.7634,200.7586l-4.053-0.2849l-51.1518-7.8831l-1.5309-12.2886
		l55.8833-3.5675L510.7634,200.7586z M518.1011,176.421c13.0391,0,25.8657,2.4519,38.125,7.2874l37.3881,14.7479l6.5067,8.5858
		l-80.5065-5.6609l-3.8226-24.9232C516.5628,176.4405,517.3347,176.421,518.1011,176.421z M437.6431,182.1033
		c0.6201-0.5269,1.4087-0.8455,2.2197-0.897l10.0473-0.6414l0.323,11.2051l-17.2913-2.6648l-1.8044-1.4766L437.6431,182.1033z"/>
	<path d="M447.0821,257.3504c0-0.1814-0.0101-0.3787-0.0294-0.5938c-0.296-3.2201-2.9662-5.6484-6.2103-5.6484
		c-3.2456,0-5.9166,2.4287-6.2132,5.6589c-0.0208,0.222-0.0308,0.4126-0.0308,0.5833c0,3.4419,2.8013,6.2417,6.244,6.2417
		C444.2828,263.5921,447.0821,260.7923,447.0821,257.3504z"/>
	<path d="M635.9098,257.3504c0-0.1814-0.0101-0.3787-0.0294-0.5938c-0.2959-3.2201-2.9661-5.6484-6.2103-5.6484
		c-3.2456,0-5.9166,2.4287-6.2132,5.6589c-0.0208,0.222-0.0308,0.4126-0.0308,0.5833c0,3.4419,2.8013,6.2417,6.244,6.2417
		C633.1105,263.5921,635.9098,260.7923,635.9098,257.3504z"/>
	<path d="M141.1558,259.3369h128.8281v1.0131h4.1028h1.8972v-3c0-13.2334,10.7661-24,24-24s24,10.7666,24,24v3h1.8968h4.1032
		v-1.0131h10.2455c2.5747,0,4.6813-2.1066,4.6813-4.6813c0-2.3787-1.8045-4.3356-4.1086-4.623l0.6288-11.652
		c0.132-2.4454-0.5022-4.8712-1.8141-6.9393l-6.9618-10.9744c-1.457-2.2966-3.6643-4.0179-6.2468-4.8711l-33.2487-10.9845
		l-64.7833-25.5541c-14.9794-5.9087-30.9161-8.4329-46.8295-7.417l-71.6859,4.5762c-1.8917,0.1206-3.6939,0.8488-5.1387,2.0758
		l-25.086,21.3063c-2.1533,1.829-3.2982,4.5802-3.0781,7.3969l0.7983,10.212c0.208,2.6611-0.8024,5.2728-2.7471,7.1011
		l-1.9245,1.8092c-1.8896,1.7765-2.8999,4.2955-2.7613,6.8854l0.9097,16.9939c-2.4708,0.1191-4.4597,2.1599-4.4597,4.6587
		c0,2.5747,2.1066,4.6813,4.6813,4.6813h10.101v1.0131h4.1032h1.8968v-3c0-13.2334,10.7661-24,24-24s24,10.7666,24,24v3h1.8972
		h4.1028V259.3369z M193.5817,210.8509l0.261-3.2913l13.933,1.1055l-0.2611,3.291L193.5817,210.8509z M126.0444,201.0093
		l0.4595-3.2693l13.8408,1.9453l-0.4595,3.2694L126.0444,201.0093z M181.0791,200.7586l-4.053-0.2849l-51.1518-7.8831
		l-1.5309-12.2886l55.8832-3.5675L181.0791,200.7586z M188.4169,176.421c13.0391,0,25.8657,2.4519,38.125,7.2874l37.3881,14.7479
		l6.5067,8.5858l-80.5065-5.6609l-3.8226-24.9232C186.8785,176.4405,187.6505,176.421,188.4169,176.421z M107.9589,182.1033
		c0.6201-0.5269,1.4087-0.8455,2.2197-0.897l10.0473-0.6414l0.3229,11.2051l-17.2912-2.6648l-1.8044-1.4766L107.9589,182.1033z"/>
	<path d="M103.7634,268.7239c-3.7182-2.425-6.1857-6.6135-6.1857-11.3735c0-0.3967,0.0201-0.8097,0.0623-1.2635
		c0.6448-7.0221,6.4561-12.3153,13.5182-12.3153c7.06,0,12.8705,5.2936,13.5161,12.3135c0.0402,0.4429,0.0602,0.8586,0.0602,1.2654
		c0,7.4869-6.0899,13.5784-13.5762,13.5784c-0.3137,0-0.6209-0.0261-0.9293-0.0471c3.4919,1.4318,6.7896,3.2395,9.8563,5.361
		c7.0784-3.3519,11.9861-10.5402,11.9861-18.8923c0-0.6539-0.0333-1.2997-0.0915-1.937
		c-0.9784-10.6427-9.9243-18.9781-20.8217-18.9781c-10.8995,0-19.8464,8.3354-20.8237,18.9781
		c-0.0592,0.6373-0.0936,1.2831-0.0936,1.937c0,3.5061,0.8733,6.8046,2.3982,9.7072
		C96.4667,267.2095,100.1874,267.784,103.7634,268.7239z"/>
	<path d="M111.1582,263.5921c3.4404,0,6.2397-2.7998,6.2397-6.2417c0-0.1814-0.0101-0.3787-0.0294-0.5938
		c-0.2959-3.2201-2.9661-5.6484-6.2103-5.6484c-3.2456,0-5.9166,2.4287-6.2132,5.6589c-0.0208,0.222-0.0308,0.4126-0.0308,0.5833
		C104.9142,260.7923,107.7156,263.5921,111.1582,263.5921z"/>
	<path d="M306.2256,257.3504c0-0.1814-0.0101-0.3787-0.0294-0.5938c-0.2959-3.2201-2.9661-5.6484-6.2103-5.6484
		c-3.2456,0-5.9166,2.4287-6.2132,5.6589c-0.0208,0.222-0.0308,0.4126-0.0308,0.5833c0,3.4419,2.8014,6.2417,6.244,6.2417
		C303.4263,263.5921,306.2256,260.7923,306.2256,257.3504z"/>
	<path d="M321.0433,85.9293c0-0.6541-0.0343-1.2997-0.0936-1.937c-0.9774-10.6427-9.9243-18.9783-20.8237-18.9783
		c-10.8974,0-19.8433,8.3356-20.8217,18.9783c-0.0582,0.6373-0.0914,1.283-0.0914,1.937c0,11.5503,9.3627,20.915,20.9131,20.915
		C311.6795,106.8443,321.0433,97.4796,321.0433,85.9293z M300.126,99.5076c-7.4863,0-13.5762-6.0913-13.5762-13.5784
		c0-0.4066,0.0201-0.8225,0.0602-1.2653c0.6455-7.0199,6.4561-12.3135,13.5161-12.3135c7.0622,0,12.8734,5.2932,13.5182,12.3153
		c0.0423,0.4539,0.0623,0.8669,0.0623,1.2634C313.7065,93.4163,307.6144,99.5076,300.126,99.5076z"/>
	<path d="M306.37,85.9293c0-0.1705-0.0101-0.3611-0.0308-0.5833c-0.2966-3.2301-2.9676-5.6589-6.2132-5.6589
		c-3.2441,0-5.9144,2.4285-6.2103,5.6487c-0.0193,0.2148-0.0294,0.4122-0.0294,0.5935c0,3.4419,2.7993,6.2418,6.2397,6.2418
		C303.5686,92.1711,306.37,89.3712,306.37,85.9293z"/>
	<path d="M87.3004,85.929c0-13.2334,10.7661-24,24-24s24,10.7666,24,24v3h1.8971h4.1029v-1.0132H270.128v1.0132h4.1031h1.8969v-3
		c0-13.2334,10.7661-24,24-24s24,10.7666,24,24v3h1.8972h4.1028v-1.0132h10.1014c2.5747,0,4.6813-2.1066,4.6813-4.6813v-0.0001
		c0-2.4988-1.989-4.5396-4.4597-4.6587l0.9097-16.9938c0.1386-2.5897-0.8716-5.109-2.7613-6.8854l-1.9245-1.8093
		c-1.9447-1.8281-2.9551-4.4399-2.7471-7.1008l0.7983-10.2122c0.2202-2.8167-0.9247-5.5679-3.0781-7.3967l-25.086-21.3064
		c-1.4448-1.2271-3.2469-1.9551-5.1387-2.0759l-71.6859-4.5762c-15.9133-1.0157-31.8501,1.5083-46.8295,7.417l-64.7833,25.5542
		L84.876,44.1746c-2.5825,0.8533-4.7899,2.5745-6.2468,4.8711l-6.9618,10.9745c-1.3119,2.068-1.946,4.4938-1.814,6.9393
		l0.6288,11.6519c-2.3041,0.2876-4.1087,2.2444-4.1087,4.623v0.0001c0,2.5747,2.1066,4.6813,4.6813,4.6813h10.2455v1.0132h4.1031
		h1.8969V85.929z M203.5084,37.244l13.933-1.1052l0.2611,3.291l-13.933,1.1053L203.5084,37.244z M231.0576,5.3135l55.8832,3.5674
		l-1.5309,12.2888l-51.1518,7.8829l-4.053,0.285L231.0576,5.3135z M284.7803,26.3189l0.4595,3.2694l-13.8408,1.9454l-0.4595-3.2693
		L284.7803,26.3189z M303.3253,10.6822l6.5056,5.5254l-1.8044,1.4767l-17.2912,2.6647l0.323-11.2051l10.0472,0.6414
		C301.9166,9.8367,302.7051,10.1553,303.3253,10.6822z M147.3542,27.0352l37.388-14.748
		c12.2593-4.8354,25.0859-7.2874,38.125-7.2874c0.7665,0,1.5384,0.0197,2.3094,0.0371L221.354,29.96l-80.5065,5.6611
		L147.3542,27.0352z"/>
	<path d="M132.2156,85.9293c0-0.6541-0.0343-1.2997-0.0936-1.937c-0.9774-10.6427-9.9243-18.9783-20.8237-18.9783
		c-10.8974,0-19.8433,8.3356-20.8217,18.9783c-0.0582,0.6373-0.0914,1.283-0.0914,1.937c0,11.5503,9.3627,20.915,20.9131,20.915
		C122.8518,106.8443,132.2156,97.4796,132.2156,85.9293z M111.2983,99.5076c-7.4863,0-13.5762-6.0913-13.5762-13.5784
		c0-0.4066,0.0201-0.8225,0.0602-1.2653c0.6455-7.0199,6.4561-12.3135,13.5161-12.3135c7.0622,0,12.8734,5.2932,13.5182,12.3153
		c0.0423,0.4539,0.0623,0.8669,0.0623,1.2634C124.8788,93.4163,118.7868,99.5076,111.2983,99.5076z"/>
	<path d="M117.5423,85.9293c0-0.1705-0.0101-0.3611-0.0308-0.5833c-0.2966-3.2301-2.9676-5.6589-6.2132-5.6589
		c-3.2441,0-5.9144,2.4285-6.2103,5.6487c-0.0193,0.2148-0.0294,0.4122-0.0294,0.5935c0,3.4419,2.7993,6.2418,6.2397,6.2418
		C114.7409,92.1711,117.5423,89.3712,117.5423,85.9293z"/>
	<path d="M650.7275,85.9293c0-0.6541-0.0343-1.2997-0.0936-1.937c-0.9774-10.6427-9.9243-18.9783-20.8237-18.9783
		c-10.8974,0-19.8433,8.3356-20.8217,18.9783c-0.0582,0.6373-0.0914,1.283-0.0914,1.937c0,11.5503,9.3627,20.915,20.9131,20.915
		C641.3637,106.8443,650.7275,97.4796,650.7275,85.9293z M629.8102,99.5076c-7.4863,0-13.5762-6.0913-13.5762-13.5784
		c0-0.4066,0.0201-0.8225,0.0602-1.2653c0.6455-7.0199,6.4561-12.3135,13.5161-12.3135c7.0622,0,12.8734,5.2932,13.5182,12.3153
		c0.0423,0.4539,0.0623,0.8669,0.0623,1.2634C643.3907,93.4163,637.2987,99.5076,629.8102,99.5076z"/>
	<path d="M636.0542,85.9293c0-0.1705-0.0101-0.3611-0.0308-0.5833c-0.2966-3.2301-2.9676-5.6589-6.2132-5.6589
		c-3.2441,0-5.9144,2.4285-6.2103,5.6487c-0.0193,0.2148-0.0294,0.4122-0.0294,0.5935c0,3.4419,2.7992,6.2418,6.2396,6.2418
		C633.2528,92.1711,636.0542,89.3712,636.0542,85.9293z"/>
	<path d="M416.9844,85.929c0-13.2334,10.7661-24,24-24s24,10.7666,24,24v3h1.8972h4.1028v-1.0132h128.8281v1.0132h4.1028h1.8972v-3
		c0-13.2334,10.7661-24,24-24s24,10.7666,24,24v3h1.8968h4.1032v-1.0132h10.1011c2.5747,0,4.6813-2.1066,4.6813-4.6813v-0.0001
		c0-2.4988-1.9889-4.5396-4.4596-4.6587l0.9096-16.9938c0.1387-2.5897-0.8716-5.109-2.7613-6.8854l-1.9244-1.8093
		c-1.9448-1.8281-2.9551-4.4399-2.7471-7.1008l0.7983-10.2122c0.2202-2.8167-0.9247-5.5679-3.0781-7.3967l-25.086-21.3064
		c-1.4448-1.2271-3.2469-1.9551-5.1387-2.0759l-71.6859-4.5762c-15.9133-1.0157-31.8501,1.5083-46.8295,7.417l-64.7833,25.5542
		l-33.2487,10.9844c-2.5825,0.8533-4.7899,2.5745-6.2468,4.8711l-6.9619,10.9745c-1.3119,2.068-1.946,4.4938-1.814,6.9393
		l0.6288,11.6519c-2.3041,0.2876-4.1087,2.2444-4.1087,4.623v0.0001c0,2.5747,2.1066,4.6813,4.6813,4.6813h10.2454v1.0132h4.1032
		h1.8968V85.929z M533.1926,37.244l13.933-1.1052l0.2611,3.291l-13.933,1.1053L533.1926,37.244z M560.7418,5.3135l55.8832,3.5674
		l-1.5309,12.2888l-51.1518,7.8829l-4.053,0.285L560.7418,5.3135z M614.4645,26.3189l0.4595,3.2694l-13.8408,1.9454l-0.4595-3.2693
		L614.4645,26.3189z M633.0095,10.6822l6.5056,5.5254l-1.8044,1.4767l-17.2912,2.6647l0.323-11.2051l10.0472,0.6414
		C631.6008,9.8367,632.3893,10.1553,633.0095,10.6822z M477.0385,27.0352l37.388-14.748
		c12.2593-4.8354,25.0859-7.2874,38.125-7.2874c0.7665,0,1.5384,0.0197,2.3094,0.0371L551.0382,29.96l-80.5065,5.6611
		L477.0385,27.0352z"/>
	<path d="M461.8998,85.9293c0-0.6541-0.0343-1.2997-0.0936-1.937c-0.9774-10.6427-9.9243-18.9783-20.8237-18.9783
		c-10.8974,0-19.8433,8.3356-20.8217,18.9783c-0.0582,0.6373-0.0914,1.283-0.0914,1.937c0,11.5503,9.3627,20.915,20.9131,20.915
		C452.536,106.8443,461.8998,97.4796,461.8998,85.9293z M440.9825,99.5076c-7.4863,0-13.5762-6.0913-13.5762-13.5784
		c0-0.4066,0.0201-0.8225,0.0602-1.2653c0.6455-7.0199,6.4561-12.3135,13.5161-12.3135c7.0622,0,12.8734,5.2932,13.5182,12.3153
		c0.0423,0.4539,0.0623,0.8669,0.0623,1.2634C454.563,93.4163,448.471,99.5076,440.9825,99.5076z"/>
	<path d="M447.2265,85.9293c0-0.1705-0.0101-0.3611-0.0308-0.5833c-0.2966-3.2301-2.9676-5.6589-6.2132-5.6589
		c-3.2441,0-5.9144,2.4285-6.2103,5.6487c-0.0193,0.2148-0.0294,0.4122-0.0294,0.5935c0,3.4419,2.7992,6.2418,6.2396,6.2418
		C444.4251,92.1711,447.2265,89.3712,447.2265,85.9293z"/>
	<path d="M980.4117,85.9293c0-0.6541-0.0342-1.2997-0.0935-1.937c-0.9773-10.6427-9.9243-18.9783-20.8237-18.9783
		c-10.8975,0-19.8433,8.3356-20.8217,18.9783c-0.0582,0.6373-0.0914,1.283-0.0914,1.937c0,11.5503,9.3628,20.915,20.9131,20.915
		C971.0479,106.8443,980.4117,97.4796,980.4117,85.9293z M959.4944,99.5076c-7.4863,0-13.5763-6.0913-13.5763-13.5784
		c0-0.4066,0.0201-0.8225,0.0602-1.2653c0.6455-7.0199,6.4561-12.3135,13.5161-12.3135c7.0621,0,12.8733,5.2932,13.5182,12.3153
		c0.0424,0.4539,0.0624,0.8669,0.0624,1.2634C973.075,93.4163,966.983,99.5076,959.4944,99.5076z"/>
	<path d="M965.7383,85.9293c0-0.1705-0.01-0.3611-0.0308-0.5833c-0.2966-3.2301-2.9675-5.6589-6.2131-5.6589
		c-3.2441,0-5.9144,2.4285-6.2103,5.6487c-0.0194,0.2148-0.0294,0.4122-0.0294,0.5935c0,3.4419,2.7993,6.2418,6.2397,6.2418
		C962.9371,92.1711,965.7383,89.3712,965.7383,85.9293z"/>
	<path d="M746.669,85.929c0-13.2334,10.7661-24,24-24s24,10.7666,24,24v3h1.8969h4.1031v-1.0132h128.8276v1.0132h4.1029h1.8971v-3
		c0-13.2334,10.7661-24,24-24s24,10.7666,24,24v3h1.897h4.103v-1.0132h10.1012c2.5747,0,4.6813-2.1066,4.6813-4.6813v-0.0001
		c0-2.4988-1.9889-4.5396-4.4596-4.6587l0.9095-16.9938c0.1387-2.5897-0.8716-5.109-2.7612-6.8854l-1.9244-1.8093
		c-1.9447-1.8281-2.9552-4.4399-2.7472-7.1008l0.7983-10.2122c0.2202-2.8167-0.9247-5.5679-3.0781-7.3967L965.9305,6.8712
		c-1.4448-1.2271-3.2469-1.9551-5.1387-2.0759l-71.6859-4.5762c-15.9133-1.0157-31.8501,1.5083-46.8295,7.417l-64.7833,25.5542
		l-33.2487,10.9844c-2.5825,0.8533-4.7899,2.5745-6.2468,4.8711l-6.9619,10.9745c-1.3119,2.068-1.946,4.4938-1.814,6.9393
		l0.6288,11.6519c-2.3041,0.2876-4.1087,2.2444-4.1087,4.623v0.0001c0,2.5747,2.1066,4.6813,4.6813,4.6813h10.2458v1.0132h4.1028
		h1.8972V85.929z M862.8768,37.244l13.933-1.1052l0.2611,3.291l-13.933,1.1053L862.8768,37.244z M890.426,5.3135l55.8832,3.5674
		l-1.5309,12.2888l-51.1518,7.8829l-4.053,0.285L890.426,5.3135z M944.1487,26.3189l0.4595,3.2694l-13.8408,1.9454l-0.4595-3.2693
		L944.1487,26.3189z M962.6937,10.6822l6.5056,5.5254l-1.8044,1.4767l-17.2911,2.6647l0.323-11.2051l10.0472,0.6414
		C961.285,9.8367,962.0735,10.1553,962.6937,10.6822z M806.7227,27.0352l37.388-14.748c12.2593-4.8354,25.0859-7.2874,38.125-7.2874
		c0.7665,0,1.5384,0.0197,2.3094,0.0371L880.7224,29.96l-80.5065,5.6611L806.7227,27.0352z"/>
	<path d="M791.584,85.9293c0-0.6541-0.0343-1.2997-0.0936-1.937c-0.9773-10.6427-9.9243-18.9783-20.8237-18.9783
		c-10.8974,0-19.8433,8.3356-20.8217,18.9783c-0.0582,0.6373-0.0914,1.283-0.0914,1.937c0,11.5503,9.3627,20.915,20.9131,20.915
		C782.2202,106.8443,791.584,97.4796,791.584,85.9293z M770.6667,99.5076c-7.4863,0-13.5763-6.0913-13.5763-13.5784
		c0-0.4066,0.0201-0.8225,0.0602-1.2653c0.6456-7.0199,6.4561-12.3135,13.5161-12.3135c7.0621,0,12.8734,5.2932,13.5182,12.3153
		c0.0423,0.4539,0.0623,0.8669,0.0623,1.2634C784.2473,93.4163,778.1552,99.5076,770.6667,99.5076z"/>
	<path d="M776.9107,85.9293c0-0.1705-0.01-0.3611-0.0308-0.5833c-0.2966-3.2301-2.9676-5.6589-6.2131-5.6589
		c-3.2442,0-5.9144,2.4285-6.2103,5.6487c-0.0193,0.2148-0.0294,0.4122-0.0294,0.5935c0,3.4419,2.7992,6.2418,6.2397,6.2418
		C774.1093,92.1711,776.9107,89.3712,776.9107,85.9293z"/>
	<path d="M60.8129,276.366H46.8V121.9843h303.5579v-15.0829h-34.7393h-30.981H126.7909h-30.981H46.8V71.9984c0-3.3-2.7-6-6-6
		h-5.0526h-3.1579c-3.3,0-6,2.7-6,6v194.7157h-5.0527h-9.4105v9.652H0v30.1656h22.1052v16.8239h16.5696
		c-0.1056-1.2883-0.1805-2.5852-0.1902-3.8984C38.3525,301.6607,47.2181,285.8602,60.8129,276.366z M36.6947,83.1772
		c2.5115,0,4.5474,2.036,4.5474,4.5475c0,2.5114-2.0359,4.5474-4.5474,4.5474c-2.5114,0-4.5474-2.036-4.5474-4.5474
		C32.1473,85.2132,34.1833,83.1772,36.6947,83.1772z"/>
	<path d="M176.5787,276.366h-47.5925h-8.7248c13.3842,9.3403,22.2147,24.7942,22.3448,42.3179
		c0.0117,1.575-0.0593,3.1309-0.1854,4.6716h12.02c-0.1056-1.2883-0.1805-2.5852-0.1902-3.8984
		C154.1183,301.6607,162.9839,285.8602,176.5787,276.366z"/>
	<path d="M761.0905,276.366h-8.3961h-48.2523V121.9843h303.558v-15.0829h-33.0129h-30.981H786.1594h-30.981h-50.7363V45.1562
		c0-3.3-2.7-6-6-6h-5.0526h-3.1579c-3.3,0-6,2.7-6,6V276.366h-5.0526h-31.6808h-9.1573
		c7.2173-3.2975,12.2424-10.5623,12.2424-19.0157c0-0.6539-0.0333-1.2997-0.0915-1.937
		c-0.9784-10.6427-9.9243-18.9781-20.8217-18.9781c-10.8995,0-19.8464,8.3354-20.8237,18.9781
		c-0.0592,0.6373-0.0936,1.2831-0.0936,1.937c0,8.4535,5.0257,15.7183,12.2444,19.0157h-9.1594H458.6704h-9.1573
		c7.2173-3.2975,12.2424-10.5623,12.2424-19.0157c0-0.6539-0.0333-1.2997-0.0915-1.937
		c-0.9784-10.6427-9.9242-18.9781-20.8217-18.9781c-10.8995,0-19.8464,8.3354-20.8237,18.9781
		c-0.0592,0.6373-0.0936,1.2831-0.0936,1.937c0,8.4535,5.0257,15.7183,12.2444,19.0157h-9.1594H375.621V121.9843H679.179v-15.0829
		h-33.8762h-30.981H456.4751h-30.981H375.621V45.1562c0-3.3-2.7-6-6-6h-5.0526h-3.1579c-3.3,0-6,2.7-6,6V276.366h-5.0526h-32.544
		h-9.1573c7.2173-3.2975,12.2424-10.5623,12.2424-19.0157c0-0.6539-0.0333-1.2997-0.0915-1.937
		c-0.9784-10.6427-9.9243-18.9781-20.8217-18.9781c-10.8995,0-19.8464,8.3354-20.8237,18.9781
		c-0.0593,0.6373-0.0936,1.2831-0.0936,1.937c0,8.4535,5.0257,15.7183,12.2444,19.0157h-9.1594h-46.1263
		c13.3842,9.3403,22.2147,24.7942,22.3448,42.3179c0.0117,1.575-0.0593,3.1309-0.1854,4.6716h15.2009v-16.8239h450.3303v16.8239
		h15.2347c-0.1056-1.2883-0.1804-2.5852-0.1902-3.8984C738.6301,301.6607,747.4957,285.8602,761.0905,276.366z M616.0895,257.3504
		c0-0.3967,0.0201-0.8097,0.0623-1.2635c0.6448-7.0221,6.4561-12.3153,13.5182-12.3153c7.06,0,12.8705,5.2936,13.5161,12.3135
		c0.0402,0.4429,0.0602,0.8586,0.0602,1.2654c0,7.4869-6.0899,13.5784-13.5762,13.5784
		C622.1816,270.9288,616.0895,264.8373,616.0895,257.3504z M427.2618,257.3504c0-0.3967,0.0201-0.8097,0.0623-1.2635
		c0.6448-7.0221,6.4561-12.3153,13.5182-12.3153c7.06,0,12.8705,5.2936,13.5161,12.3135c0.0402,0.4429,0.0602,0.8586,0.0602,1.2654
		c0,7.4869-6.0899,13.5784-13.5762,13.5784C433.3539,270.9288,427.2618,264.8373,427.2618,257.3504z M286.4053,257.3504
		c0-0.3967,0.0201-0.8097,0.0623-1.2635c0.6448-7.0221,6.4561-12.3153,13.5182-12.3153c7.06,0,12.8705,5.2936,13.5161,12.3135
		c0.0402,0.4429,0.0602,0.8586,0.0602,1.2654c0,7.4869-6.0899,13.5784-13.5762,13.5784
		C292.4974,270.9288,286.4053,264.8373,286.4053,257.3504z M694.3369,56.335c2.5114,0,4.5474,2.036,4.5474,4.5474
		c0,2.5115-2.0359,4.5475-4.5474,4.5475c-2.5115,0-4.5474-2.036-4.5474-4.5475C689.7895,58.371,691.8254,56.335,694.3369,56.335z
		 M365.5157,56.335c2.5115,0,4.5474,2.036,4.5474,4.5474c0,2.5115-2.0359,4.5475-4.5474,4.5475
		c-2.5114,0-4.5474-2.036-4.5474-4.5475C360.9684,58.371,363.0043,56.335,365.5157,56.335z"/>
	<path d="M879.4708,276.366h-58.9317c13.3843,9.3403,22.2147,24.7942,22.3448,42.3179c0.0117,1.575-0.0593,3.1309-0.1854,4.6716
		h14.6343c-0.1056-1.2883-0.1804-2.5852-0.1902-3.8984C857.0104,301.6607,865.876,285.8602,879.4708,276.366z"/>
	<path d="M1258.5498,217.1773l-38.7672-68.9634l-50.5209-11.6794H1069.183v-12.1263h-14.4182v24.6316h-8.9503v69.2211h8.9503
		v69.4895h-14.8347V276.366h-6.6669V99.7247c0-3.3-2.7001-6-6-6h-5.0527h-3.158c-3.2999,0-6,2.7-6,6V276.366h-5.0525h-30.8177
		h-9.1573c7.2173-3.2975,12.2424-10.5623,12.2424-19.0157c0-0.6539-0.0332-1.2997-0.0916-1.937
		c-0.9783-10.6427-9.9241-18.9781-20.8215-18.9781c-10.8995,0-19.8464,8.3354-20.8237,18.9781
		c-0.0593,0.6373-0.0936,1.2831-0.0936,1.937c0,8.4535,5.0258,15.7183,12.2445,19.0157h-9.1594h-2.6028
		c13.3843,9.3403,22.2147,24.7942,22.3448,42.3179c0.0117,1.575-0.0592,3.1309-0.1854,4.6716h15.2305v-6.769h97.8163v11.0024
		h12.2089c-0.4587-2.7737-0.7085-5.6167-0.7085-8.5183c0-28.7037,23.3541-52.0592,52.0602-52.0592
		c28.7064,0,52.0643,23.3555,52.0643,52.0592c0,2.9016-0.2499,5.7446-0.7085,8.5183h12.209v-10.2437h57.299v-11.6477h12.6353
		v-25.7863h-12.6353V217.1773z M945.7737,257.3504c0-0.3967,0.02-0.8097,0.0623-1.2635
		c0.6449-7.0221,6.4561-12.3153,13.5183-12.3153c7.0601,0,12.8706,5.2936,13.5161,12.3135c0.04,0.4429,0.0601,0.8586,0.0601,1.2654
		c0,7.4869-6.0898,13.5784-13.5762,13.5784C951.8658,270.9288,945.7737,264.8373,945.7737,257.3504z M1027.7052,115.4509
		c0,2.5115-2.0359,4.5475-4.5473,4.5475c-2.5115,0-4.5474-2.036-4.5474-4.5475c0-2.5114,2.0359-4.5474,4.5474-4.5474
		C1025.6693,110.9035,1027.7052,112.9395,1027.7052,115.4509z M1240.3359,222.2729l-90.8706-0.0006v-52.9023h58.7622
		L1240.3359,222.2729z M1178.8618,245.3576h-29.3965v-5.1573h29.3965V245.3576z"/>
	<path d="M1180.535,319.0718c0-23.6609-19.1809-42.8445-42.847-42.8445c-23.662,0-42.8468,19.1836-42.8468,42.8445
		c0,23.6631,19.1848,42.8467,42.8468,42.8467C1161.3541,361.9185,1180.535,342.7349,1180.535,319.0718z M1137.6854,343.4905
		c-13.4619,0-24.4149-10.954-24.4149-24.4199c0-13.4636,10.953-24.4153,24.4149-24.4153c13.4663,0,24.4202,10.9517,24.4202,24.4153
		C1162.1056,332.5366,1151.1517,343.4905,1137.6854,343.4905z"/>
	
		<ellipse transform="matrix(0.3827 -0.9239 0.9239 0.3827 407.5294 1248.0564)" cx="1137.6881" cy="319.073" rx="8.8376" ry="8.8377"/>
	<path d="M952.0491,318.7536c-0.1758-23.6602-19.4985-42.7008-43.1641-42.525c-23.6613,0.1758-42.7032,19.5012-42.5275,43.1614
		c0.1757,23.6626,19.5025,42.7031,43.1638,42.5273C933.1869,361.7416,952.2248,342.4162,952.0491,318.7536z M909.3819,343.4898
		c-13.4616,0.1001-24.4955-10.7723-24.5955-24.238c-0.0999-13.4631,10.7714-24.4957,24.2329-24.5957
		c13.4659-0.1,24.501,10.77,24.6009,24.2332C933.7202,332.3549,922.8478,343.39,909.3819,343.4898z"/>
	<path d="M918.0406,319.0074c-0.0362-4.8807-4.0222-8.808-8.903-8.7717c-4.8807,0.0361-8.808,4.0222-8.7717,8.903
		s4.0222,8.808,8.903,8.7717S918.0769,323.888,918.0406,319.0074z"/>
	<path d="M833.6688,318.7536c-0.1757-23.6602-19.4984-42.7008-43.164-42.525c-23.6613,0.1758-42.7032,19.5012-42.5275,43.1614
		c0.1757,23.6626,19.5025,42.7031,43.1638,42.5273C814.8066,361.7416,833.8445,342.4162,833.6688,318.7536z M791.0016,343.4898
		c-13.4616,0.1001-24.4955-10.7723-24.5955-24.238c-0.1-13.4631,10.7714-24.4957,24.2329-24.5957
		c13.4659-0.1,24.5009,10.77,24.6009,24.2332C815.3399,332.3549,804.4676,343.39,791.0016,343.4898z"/>
	<path d="M799.6604,319.0074c-0.0363-4.8807-4.0222-8.808-8.903-8.7717c-4.8807,0.0361-8.808,4.0222-8.7717,8.903
		s4.0222,8.808,8.903,8.7717S799.6967,323.888,799.6604,319.0074z"/>
	<path d="M249.157,318.7536c-0.1757-23.6602-19.4984-42.7008-43.164-42.525c-23.6613,0.1758-42.7032,19.5012-42.5275,43.1614
		c0.1757,23.6626,19.5026,42.7031,43.1638,42.5273C230.2949,361.7416,249.3328,342.4162,249.157,318.7536z M206.4899,343.4898
		c-13.4615,0.1001-24.4955-10.7723-24.5955-24.238c-0.1-13.4631,10.7713-24.4957,24.2328-24.5957
		c13.4659-0.1,24.501,10.77,24.601,24.2332C230.8282,332.3549,219.9558,343.39,206.4899,343.4898z"/>
	<path d="M215.1486,319.0074c-0.0362-4.8807-4.0222-8.808-8.903-8.7717c-4.8807,0.0361-8.8079,4.0222-8.7717,8.903
		c0.0363,4.8807,4.0223,8.808,8.903,8.7717C211.2576,327.8741,215.1849,323.888,215.1486,319.0074z"/>
	<path d="M133.3912,318.7536c-0.1757-23.6602-19.4984-42.7008-43.164-42.525C66.566,276.4044,47.524,295.7298,47.6997,319.39
		c0.1757,23.6626,19.5025,42.7031,43.1638,42.5273C114.5291,361.7416,133.5669,342.4162,133.3912,318.7536z M90.7241,343.4898
		c-13.4616,0.1001-24.4955-10.7723-24.5955-24.238c-0.1-13.4631,10.7713-24.4957,24.2329-24.5957
		c13.4659-0.1,24.5009,10.77,24.6009,24.2332C115.0623,332.3549,104.1899,343.39,90.7241,343.4898z"/>
	<path d="M99.3828,319.0074c-0.0363-4.8807-4.0223-8.808-8.903-8.7717c-4.8807,0.0361-8.808,4.0222-8.7717,8.903
		c0.0362,4.8807,4.0222,8.808,8.903,8.7717S99.419,323.888,99.3828,319.0074z"/>
</g>
</svg>
