<?xml version="1.0" encoding="UTF-8" standalone="no"?> <svg width="512" height="512" viewBox="0 0 512 512" fill="none" xmlns="http://www.w3.org/2000/svg">
<path d="M434.7 190.6L403.7 156.4L413.4 111.3C414.3 107.3 411.9 103.3 408 102L364.1 87.8001L350 43.9001C348.7 40.0001 344.7 37.7001 340.7 38.5001L295.6 48.2001L261.4 17.2001C258.4 14.4001 253.7 14.4001 250.7 17.2001L216.5 48.2001L171.4 38.5001C167.4 37.6001 163.4 40.0001 162.1 43.9001L147.9 87.8001L103.9 102C100 103.3 97.7001 107.3 98.5001 111.3L108.2 156.4L77.2001 190.6C74.4001 193.6 74.4001 198.3 77.2001 201.3L108.2 235.5L98.5001 280.6C97.6001 284.6 100 288.6 103.9 289.9L147.8 304.1L149.6 309.8L97.4001 454.5C96.2001 457.7 97.2001 461.3 99.9001 463.4C102.5 465.5 106.2 465.8 109.1 464L162.4 431.4L182.5 490.5C183.6 493.7 186.6 495.9 190 495.9H190.1C193.5 495.9 196.5 493.8 197.6 490.6L242.3 367L250.7 374.6C252.2 376 254.1 376.7 256.1 376.7C258.1 376.7 259.9 376 261.5 374.6L269.9 367L314.6 490.6C315.7 493.8 318.8 495.9 322.1 495.9H322.2C325.6 495.9 328.6 493.7 329.7 490.5L349.8 431.4L403.1 464C406 465.8 409.7 465.5 412.3 463.4C414.9 461.3 415.9 457.7 414.8 454.5L362.5 309.9L364.3 304.2L408.2 290C412.1 288.7 414.4 284.7 413.6 280.7L403.9 235.6L434.9 201.4C437.5 198.3 437.5 193.7 434.7 190.6ZM190.2 463.8L174.2 416.8C173.4 414.5 171.6 412.7 169.3 411.8C167 410.9 164.5 411.2 162.4 412.5L120 438.4L157.5 334.7L161.8 348C163.1 351.9 167.1 354.2 171.1 353.4L216.2 343.7L229.2 355.5L190.2 463.8ZM391.8 438.5L349.4 412.6C347.3 411.3 344.8 411.1 342.5 411.9C340.2 412.7 338.4 414.5 337.6 416.9L321.6 463.9L282.4 355.6L295.4 343.8L340.5 353.5C344.5 354.4 348.5 352 349.8 348.1L354.1 334.8L391.8 438.5ZM389.2 227.9C387.5 229.8 386.8 232.4 387.3 234.9L396.3 277L355.4 290.2C353 291 351 292.9 350.2 295.4L346.3 307.4L337 336.3L294.9 327.3C292.4 326.8 289.8 327.5 287.9 329.2L256 358L224.1 329.1C222.6 327.8 220.7 327 218.7 327C218.1 327 217.6 327.1 217 327.2L174.9 336.2L165.6 307.3L161.7 295.3C160.9 292.9 159 290.9 156.5 290.1L115.7 277L124.7 234.9C125.2 232.4 124.5 229.8 122.8 227.9L94.0001 196L122.9 164.1C124.6 162.2 125.3 159.6 124.8 157.1L115.8 115L156.7 101.8C159.1 101 161.1 99.1001 161.9 96.6001L175 55.7001L217.1 64.7001C219.6 65.2001 222.2 64.5001 224.1 62.8001L256 34.0001L287.9 62.9001C289.8 64.6001 292.4 65.3001 294.9 64.8001L337 55.8001L350.2 96.7001C351 99.1001 352.9 101.1 355.4 101.9L396.3 115.1L387.3 157.2C386.8 159.7 387.5 162.3 389.2 164.2L418 196L389.2 227.9Z" fill="black"/>
<path d="M256 80C189.8 80 136 133.8 136 200C136 266.2 189.8 320 256 320C322.2 320 376 266.2 376 200C376 133.8 322.2 80 256 80ZM256 304C198.7 304 152 257.3 152 200C152 142.7 198.7 96 256 96C313.3 96 360 142.7 360 200C360 257.3 313.3 304 256 304Z" fill="black"/>
<path d="M300.7 140.6L232 208.6L211.3 188.1C205.1 182 195 182 188.7 188.1L176 200.6C173 203.6 171.3 207.6 171.3 211.9C171.3 216.2 173 220.2 176 223.2L220.7 267.4C223.8 270.5 227.9 272 232 272C236.1 272 240.2 270.5 243.3 267.4L336 175.8C339 172.8 340.7 168.8 340.7 164.5C340.7 160.2 339 156.2 336 153.2L323.3 140.7C317.1 134.5 306.9 134.5 300.7 140.6ZM250.4 237.9L232 256L187.4 211.9L200.1 199.5L226.4 225.5C229.5 228.6 234.5 228.6 237.6 225.5L312 152L306.4 146.3L324.7 164.4L250.4 237.9Z" fill="black"/>
</svg>
